<?xml version="1.0" encoding="UTF-8"?>
<svg width="1346px" height="2402px" viewBox="0 0 1346 2402" version="1.1" xmlns="http://www.w3.org/2000/svg" xmlns:xlink="http://www.w3.org/1999/xlink">
    <!-- Generator: Sketch 43.2 (39069) - http://www.bohemiancoding.com/sketch -->
    <title>Background</title>
    <desc>Created with Sketch.</desc>
    <defs></defs>
    <g id="Page-1" stroke="none" stroke-width="1" fill="none" fill-rule="evenodd" opacity="0.146116395">
        <g id="Background" fill="#FFFFFF">
            <path d="M1280.5,3386 C677.128911,3386 188,2896.87109 188,2293.5 C188,1690.12891 677.128911,1201 1280.5,1201 C1883.87109,1201 2373,1690.12891 2373,2293.5 C2373,2896.87109 1883.87109,3386 1280.5,3386 Z M1279.5,3317 C1829.29947,3317 2275,2871.29947 2275,2321.5 C2275,1771.70053 1829.29947,1326 1279.5,1326 C729.700532,1326 284,1771.70053 284,2321.5 C284,2871.29947 729.700532,3317 1279.5,3317 Z" id="Combined-Shape"></path>
            <path d="M1246,3188 C752.257434,3188 352,2802.96488 352,2328 C352,1853.03512 752.257434,1468 1246,1468 C1739.74257,1468 2140,1853.03512 2140,2328 C2140,2802.96488 1739.74257,3188 1246,3188 Z M1244.4407,3134 C1694.26314,3134 2058.91628,2783.2151 2058.91628,2350.5 C2058.91628,1917.7849 1694.26314,1567 1244.4407,1567 C794.618255,1567 429.965116,1917.7849 429.965116,2350.5 C429.965116,2783.2151 794.618255,3134 1244.4407,3134 Z" id="Combined-Shape"></path>
            <path d="M1229.5,3067 C821.085428,3067 490,2756.50947 490,2373.5 C490,1990.49053 821.085428,1680 1229.5,1680 C1637.91457,1680 1969,1990.49053 1969,2373.5 C1969,2756.50947 1637.91457,3067 1229.5,3067 Z M1229,3023 C1601.23992,3023 1903,2740.04396 1903,2391 C1903,2041.95604 1601.23992,1759 1229,1759 C856.760079,1759 555,2041.95604 555,2391 C555,2740.04396 856.760079,3023 1229,3023 Z" id="Combined-Shape"></path>
            <path d="M1236.5,2916 C884.418472,2916 599,2676.24848 599,2380.5 C599,2084.75152 884.418472,1845 1236.5,1845 C1588.58153,1845 1874,2084.75152 1874,2380.5 C1874,2676.24848 1588.58153,2916 1236.5,2916 Z M1236.5,2880 C1557.1013,2880 1817,2661.73882 1817,2392.5 C1817,2123.26118 1557.1013,1905 1236.5,1905 C915.898703,1905 656,2123.26118 656,2392.5 C656,2661.73882 915.898703,2880 1236.5,2880 Z" id="Combined-Shape"></path>
            <path d="M1224.5,2815 C932.61751,2815 696,2627.40731 696,2396 C696,2164.59269 932.61751,1977 1224.5,1977 C1516.38249,1977 1753,2164.59269 1753,2396 C1753,2627.40731 1516.38249,2815 1224.5,2815 Z M1225,2786 C1490.64896,2786 1706,2615.42049 1706,2405 C1706,2194.57951 1490.64896,2024 1225,2024 C959.351035,2024 744,2194.57951 744,2405 C744,2615.42049 959.351035,2786 1225,2786 Z" id="Combined-Shape"></path>
        </g>
    </g>
</svg>